<mxfile host="app.diagrams.net" agent="Mozilla/5.0 (Windows NT 10.0; Win64; x64) AppleWebKit/537.36 (KHTML, like Gecko) Chrome/133.0.0.0 Safari/537.36" version="26.0.16">
  <diagram name="PÃ¡gina-1" id="Q93YfZ2ZbSImWUiIogn_">
    <mxGraphModel dx="1050" dy="569" grid="1" gridSize="10" guides="1" tooltips="1" connect="1" arrows="1" fold="1" page="1" pageScale="1" pageWidth="827" pageHeight="1169" math="0" shadow="0">
      <root>
        <mxCell id="0" />
        <mxCell id="1" parent="0" />
        <mxCell id="rRisfjTU_rlZq0tatjZk-1" value="&amp;nbsp; &amp;nbsp; &amp;nbsp; &amp;nbsp; &amp;nbsp; &amp;nbsp; &amp;nbsp; &amp;nbsp; &amp;nbsp; &amp;nbsp; &amp;nbsp; RAIZ PRINCIPAL DEL PROYECTO" style="shape=folder;fontStyle=1;spacingTop=10;tabWidth=450;tabHeight=40;tabPosition=left;html=1;whiteSpace=wrap;fillColor=#dae8fc;strokeColor=#6c8ebf;verticalAlign=top;align=left;fontSize=16;" vertex="1" parent="1">
          <mxGeometry x="70" y="110" width="690" height="270" as="geometry" />
        </mxCell>
        <mxCell id="rRisfjTU_rlZq0tatjZk-2" value="&lt;span id=&quot;docs-internal-guid-bf31eb83-7fff-66d8-4a39-cdeafa06d319&quot;&gt;&lt;span style=&quot;font-family: Arial, sans-serif; font-variant-numeric: normal; font-variant-east-asian: normal; font-variant-alternates: normal; font-variant-position: normal; font-variant-emoji: normal; text-decoration-skip-ink: none; vertical-align: baseline; white-space-collapse: preserve;&quot;&gt;WIREMOCK/STUBS/MAPPINGS&lt;/span&gt;&lt;/span&gt;" style="shape=folder;fontStyle=1;spacingTop=10;tabWidth=40;tabHeight=14;tabPosition=left;html=1;whiteSpace=wrap;verticalAlign=middle;fillColor=#ffe6cc;strokeColor=#d79b00;labelBackgroundColor=none;fontColor=#000000;fontSize=16;" vertex="1" parent="1">
          <mxGeometry x="90" y="270" width="280" height="70" as="geometry" />
        </mxCell>
        <mxCell id="rRisfjTU_rlZq0tatjZk-3" value="NGINX" style="shape=folder;fontStyle=1;spacingTop=10;tabWidth=40;tabHeight=14;tabPosition=left;html=1;whiteSpace=wrap;verticalAlign=middle;fillColor=#ffe6cc;strokeColor=#d79b00;fontSize=16;" vertex="1" parent="1">
          <mxGeometry x="580" y="270" width="143" height="70" as="geometry" />
        </mxCell>
        <mxCell id="rRisfjTU_rlZq0tatjZk-4" value="FRONTEND" style="shape=folder;fontStyle=1;spacingTop=10;tabWidth=40;tabHeight=14;tabPosition=left;html=1;whiteSpace=wrap;verticalAlign=middle;fillColor=#ffe6cc;strokeColor=#d79b00;fontSize=16;" vertex="1" parent="1">
          <mxGeometry x="580" y="170" width="143" height="70" as="geometry" />
        </mxCell>
        <mxCell id="rRisfjTU_rlZq0tatjZk-5" value="CYPRESS" style="shape=folder;fontStyle=1;spacingTop=10;tabWidth=40;tabHeight=14;tabPosition=left;html=1;whiteSpace=wrap;verticalAlign=middle;fillColor=#ffe6cc;strokeColor=#d79b00;align=center;fontSize=16;" vertex="1" parent="1">
          <mxGeometry x="400" y="170" width="143" height="70" as="geometry" />
        </mxCell>
        <mxCell id="rRisfjTU_rlZq0tatjZk-7" value="BACKEND" style="shape=folder;fontStyle=1;spacingTop=10;tabWidth=40;tabHeight=14;tabPosition=left;html=1;whiteSpace=wrap;verticalAlign=middle;fillColor=#ffe6cc;strokeColor=#d79b00;fontSize=16;" vertex="1" parent="1">
          <mxGeometry x="400" y="270" width="143" height="70" as="geometry" />
        </mxCell>
        <mxCell id="rRisfjTU_rlZq0tatjZk-40" value="&lt;span id=&quot;docs-internal-guid-c4f8f5a2-7fff-a26a-38e5-7b9e291a62f5&quot;&gt;&lt;p dir=&quot;ltr&quot; style=&quot;line-height:1.38;margin-top:0pt;margin-bottom:0pt;&quot;&gt;&lt;span style=&quot;font-family: Arial, sans-serif; font-variant-numeric: normal; font-variant-east-asian: normal; font-variant-alternates: normal; font-variant-position: normal; font-variant-emoji: normal; vertical-align: baseline; white-space-collapse: preserve;&quot;&gt;DOCS/ARCHITECTURE/DECISIONS&lt;/span&gt;&lt;/p&gt;&lt;div&gt;&lt;span style=&quot;font-family: Arial, sans-serif; font-variant-numeric: normal; font-variant-east-asian: normal; font-variant-alternates: normal; font-variant-position: normal; font-variant-emoji: normal; vertical-align: baseline; white-space-collapse: preserve;&quot;&gt;&lt;br&gt;&lt;/span&gt;&lt;/div&gt;&lt;/span&gt;" style="shape=folder;fontStyle=1;spacingTop=10;tabWidth=40;tabHeight=14;tabPosition=left;html=1;whiteSpace=wrap;verticalAlign=bottom;fillColor=#ffe6cc;strokeColor=#d79b00;fontColor=#000000;labelBackgroundColor=none;fontSize=16;" vertex="1" parent="1">
          <mxGeometry x="90" y="170" width="280" height="70" as="geometry" />
        </mxCell>
        <mxCell id="rRisfjTU_rlZq0tatjZk-43" style="edgeStyle=orthogonalEdgeStyle;rounded=0;orthogonalLoop=1;jettySize=auto;html=1;exitX=1;exitY=0.5;exitDx=0;exitDy=0;" edge="1" parent="1">
          <mxGeometry relative="1" as="geometry">
            <mxPoint x="461" y="131" as="sourcePoint" />
            <mxPoint x="461" y="131" as="targetPoint" />
          </mxGeometry>
        </mxCell>
        <mxCell id="rRisfjTU_rlZq0tatjZk-44" value="" style="endArrow=block;dashed=1;endFill=0;endSize=12;html=1;rounded=0;exitX=0;exitY=0;exitDx=0;exitDy=70;exitPerimeter=0;entryX=0;entryY=0;entryDx=143;entryDy=14;entryPerimeter=0;" edge="1" parent="1" source="rRisfjTU_rlZq0tatjZk-4" target="rRisfjTU_rlZq0tatjZk-7">
          <mxGeometry width="160" relative="1" as="geometry">
            <mxPoint x="450" y="320" as="sourcePoint" />
            <mxPoint x="610" y="320" as="targetPoint" />
          </mxGeometry>
        </mxCell>
      </root>
    </mxGraphModel>
  </diagram>
</mxfile>
